<svg xmlns="http://www.w3.org/2000/svg" width="1200" height="420" viewBox="0 0 1200 420" role="img" aria-labelledby="title desc">
  <title id="title">hermes-telegram-artifacts</title>
  <desc id="desc">TELEGRAM</desc>
  <defs>
    <radialGradient id="bg" cx="0.32" cy="0.42" r="0.95" gradientUnits="userSpaceOnUse">
      <stop offset="0" stop-color="#15101F"/>
      <stop offset="0.55" stop-color="#0C0F16"/>
      <stop offset="1" stop-color="#0B0E11"/>
    </radialGradient>
    <linearGradient id="acc" x1="0" y1="0" x2="1" y2="0">
      <stop offset="0" stop-color="#7C5CFF"/>
      <stop offset="1" stop-color="#9B7BFF"/>
    </linearGradient>
    <linearGradient id="panel" x1="0" y1="0" x2="0" y2="1">
      <stop offset="0" stop-color="#161B26"/>
      <stop offset="1" stop-color="#10131B"/>
    </linearGradient>
  </defs>
  <rect width="1200" height="420" fill="url(#bg)"/>
  <rect x="598" y="56" width="1" height="312" fill="#222838"/>
  <text x="64" y="74" font-family="-apple-system,BlinkMacSystemFont,Segoe UI,sans-serif" font-size="12" letter-spacing="3" fill="#7C5CFF">TELEGRAM</text>
  <text x="62" y="128" font-family="-apple-system,BlinkMacSystemFont,Segoe UI,sans-serif" font-size="50" font-weight="700" fill="#F4F6FB">hermes-telegram-artifacts</text>
  <rect x="64" y="146" width="52" height="4" rx="2" fill="url(#acc)"/>
<text x="64" y="176" font-family="-apple-system,BlinkMacSystemFont,Segoe UI,sans-serif" font-size="17" fill="#C7CEDB">Interactive HTML widgets</text>
<text x="64" y="204" font-family="-apple-system,BlinkMacSystemFont,Segoe UI,sans-serif" font-size="17" fill="#C7CEDB">delivered via Telegram</text>
<text x="64" y="232" font-family="-apple-system,BlinkMacSystemFont,Segoe UI,sans-serif" font-size="17" fill="#C7CEDB">Mini Apps in Hermes</text>
<defs><marker id="ah5" markerWidth="10" markerHeight="10" refX="7" refY="3" orient="auto"><path d="M0 0 L7 3 L0 6 Z" fill="#7C5CFF"/></marker></defs><rect x="700" y="90" width="160" height="300" rx="24" fill="url(#panel)" stroke="#2A3350"/><rect x="716" y="120" width="128" height="210" rx="10" fill="#0E111A"/><rect x="730" y="140" width="100" height="40" rx="8" fill="#7C5CFF" opacity="0.3"/><rect x="730" y="194" width="100" height="10" rx="5" fill="#1C2230"/><rect x="730" y="214" width="70" height="10" rx="5" fill="#1C2230"/><path d="M880 240 L1060 160" stroke="url(#acc)" stroke-width="3" marker-end="url(#ah5)"/><circle cx="1060" cy="160" r="10" fill="#7C5CFF"/>
</svg>